<svg width="52" height="52" viewBox="0 0 52 52" fill="none" xmlns="http://www.w3.org/2000/svg">
<path opacity="0.1" fill-rule="evenodd" clip-rule="evenodd" d="M25.8117 50.5624C39.4813 50.5624 50.5627 39.481 50.5627 25.8115C50.5627 12.1419 39.4813 1.06055 25.8117 1.06055C12.1422 1.06055 1.06079 12.1419 1.06079 25.8115C1.06079 39.481 12.1422 50.5624 25.8117 50.5624Z" stroke="white" stroke-width="2.12151"/>
<path d="M28.0651 19.4762H30.3399C30.5492 19.4762 30.719 19.3162 30.719 19.119V16.9754C30.719 16.7782 30.5492 16.6182 30.3399 16.6182H28.0651C25.766 16.6182 23.8946 18.3809 23.8946 20.548V23.0488H21.2407C21.0314 23.0488 20.8616 23.2089 20.8616 23.4061V25.5496C20.8616 25.7468 21.0314 25.9069 21.2407 25.9069H23.8946V33.4093C23.8946 33.6065 24.0645 33.7666 24.2738 33.7666H26.5486C26.7578 33.7666 26.9277 33.6065 26.9277 33.4093V25.9069H29.5816C29.7446 25.9069 29.8895 25.8083 29.9418 25.6625L30.7 23.519C30.7387 23.4104 30.719 23.2903 30.6477 23.1967C30.5757 23.1038 30.462 23.0488 30.3399 23.0488H26.9277V20.548C26.9277 19.9571 27.438 19.4762 28.0651 19.4762Z" fill="white"/>
</svg>
