<svg width="52" height="52" viewBox="0 0 52 52" fill="none" xmlns="http://www.w3.org/2000/svg">
<path opacity="0.1" fill-rule="evenodd" clip-rule="evenodd" d="M25.8117 50.5624C39.4813 50.5624 50.5627 39.481 50.5627 25.8115C50.5627 12.1419 39.4813 1.06055 25.8117 1.06055C12.1422 1.06055 1.06079 12.1419 1.06079 25.8115C1.06079 39.481 12.1422 50.5624 25.8117 50.5624Z" stroke="white" stroke-width="2.12151"/>
<path d="M20.1312 20.8146C21.29 20.8146 22.2294 19.8752 22.2294 18.7164C22.2294 17.5576 21.29 16.6182 20.1312 16.6182C18.9724 16.6182 18.033 17.5576 18.033 18.7164C18.033 19.8752 18.9724 20.8146 20.1312 20.8146Z" fill="white"/>
<path d="M21.8796 22.2163H18.3825C18.1895 22.2163 18.0328 22.373 18.0328 22.566V33.0572C18.0328 33.2503 18.1895 33.4069 18.3825 33.4069H21.8796C22.0727 33.4069 22.2293 33.2503 22.2293 33.0572V22.566C22.2293 22.373 22.0727 22.2163 21.8796 22.2163Z" fill="white"/>
<path d="M32.3008 21.6341C30.8061 21.1221 28.9366 21.5718 27.8154 22.3782C27.777 22.2279 27.6399 22.116 27.4769 22.116H23.9798C23.7868 22.116 23.6301 22.2726 23.6301 22.4657V32.9569C23.6301 33.1499 23.7868 33.3066 23.9798 33.3066H27.4769C27.6699 33.3066 27.8266 33.1499 27.8266 32.9569V25.4172C28.3917 24.9304 29.1198 24.7751 29.7157 25.0283C30.2934 25.2724 30.6243 25.8683 30.6243 26.6621V32.9569C30.6243 33.1499 30.7809 33.3066 30.974 33.3066H34.471C34.6641 33.3066 34.8208 33.1499 34.8208 32.9569V25.9578C34.7809 23.0839 33.4289 22.0201 32.3008 21.6341Z" fill="white"/>
</svg>
