<svg width="81" height="81" viewBox="0 0 81 81" fill="none" xmlns="http://www.w3.org/2000/svg">
<rect x="1" y="1" width="79" height="79" rx="10" stroke="url(#paint0_linear_6048_21)" stroke-width="2"/>
<mask id="mask0_6048_21" style="mask-type:alpha" maskUnits="userSpaceOnUse" x="18" y="18" width="46" height="46">
<rect x="18" y="18" width="46" height="46" fill="#D9D9D9"/>
</mask>
<g mask="url(#mask0_6048_21)">
<path d="M27.5833 58.25C27.0403 58.25 26.5851 58.0663 26.2177 57.699C25.8503 57.3316 25.6667 56.8764 25.6667 56.3333V54.4167H23.75V46.75C23.75 46.2069 23.9337 45.7517 24.301 45.3844C24.6684 45.017 25.1236 44.8333 25.6667 44.8333H27.5833V31.4167C27.5833 29.3083 28.334 27.5035 29.8354 26.0021C31.3368 24.5007 33.1417 23.75 35.25 23.75C37.3583 23.75 39.1632 24.5007 40.6646 26.0021C42.166 27.5035 42.9167 29.3083 42.9167 31.4167V50.5833C42.9167 51.6375 43.292 52.5399 44.0427 53.2906C44.7934 54.0413 45.6958 54.4167 46.75 54.4167C47.8042 54.4167 48.7066 54.0413 49.4573 53.2906C50.208 52.5399 50.5833 51.6375 50.5833 50.5833V37.1667H48.6667C48.1236 37.1667 47.6684 36.983 47.301 36.6156C46.9337 36.2483 46.75 35.7931 46.75 35.25V27.5833H48.6667V25.6667C48.6667 25.1236 48.8503 24.6684 49.2177 24.301C49.5851 23.9337 50.0403 23.75 50.5833 23.75H54.4167C54.9597 23.75 55.4149 23.9337 55.7823 24.301C56.1497 24.6684 56.3333 25.1236 56.3333 25.6667V27.5833H58.25V35.25C58.25 35.7931 58.0663 36.2483 57.699 36.6156C57.3316 36.983 56.8764 37.1667 56.3333 37.1667H54.4167V50.5833C54.4167 52.6917 53.666 54.4965 52.1646 55.9979C50.6632 57.4993 48.8583 58.25 46.75 58.25C44.6417 58.25 42.8368 57.4993 41.3354 55.9979C39.834 54.4965 39.0833 52.6917 39.0833 50.5833V31.4167C39.0833 30.3625 38.708 29.4601 37.9573 28.7094C37.2066 27.9587 36.3042 27.5833 35.25 27.5833C34.1958 27.5833 33.2934 27.9587 32.5427 28.7094C31.792 29.4601 31.4167 30.3625 31.4167 31.4167V44.8333H33.3333C33.8764 44.8333 34.3316 45.017 34.699 45.3844C35.0663 45.7517 35.25 46.2069 35.25 46.75V54.4167H33.3333V56.3333C33.3333 56.8764 33.1497 57.3316 32.7823 57.699C32.4149 58.0663 31.9597 58.25 31.4167 58.25H27.5833Z" fill="url(#paint1_linear_6048_21)"/>
</g>
<defs>
<linearGradient id="paint0_linear_6048_21" x1="81" y1="71.205" x2="-3.24214e-09" y2="71.205" gradientUnits="userSpaceOnUse">
<stop stop-color="#F0B71F"/>
<stop offset="1" stop-color="#E03609"/>
</linearGradient>
<linearGradient id="paint1_linear_6048_21" x1="58.25" y1="54.0781" x2="23.75" y2="54.0781" gradientUnits="userSpaceOnUse">
<stop stop-color="#F0B71F"/>
<stop offset="1" stop-color="#E03609"/>
</linearGradient>
</defs>
</svg>
