<svg width="81" height="81" viewBox="0 0 81 81" fill="none" xmlns="http://www.w3.org/2000/svg">
<rect x="1" y="1" width="79" height="79" rx="10" stroke="url(#paint0_linear_6048_19)" stroke-width="2"/>
<mask id="mask0_6048_19" style="mask-type:alpha" maskUnits="userSpaceOnUse" x="18" y="18" width="46" height="46">
<rect x="18" y="18" width="46" height="46" fill="#D9D9D9"/>
</mask>
<g mask="url(#mask0_6048_19)">
<path d="M42.9167 46.7503V35.2503H47.7083V31.417H42.9167V19.917H56.3333V31.417H51.5417V35.2503H56.3333V46.7503H42.9167ZM25.6667 62.0837V50.5837H30.4583V46.7503H25.6667V35.2503H30.4583V31.417H25.6667V19.917H39.0833V31.417H34.2917V35.2503H39.0833V46.7503H34.2917V50.5837H39.0833V62.0837H25.6667Z" fill="url(#paint1_linear_6048_19)"/>
</g>
<defs>
<linearGradient id="paint0_linear_6048_19" x1="81" y1="71.205" x2="-3.24214e-09" y2="71.205" gradientUnits="userSpaceOnUse">
<stop stop-color="#F0B71F"/>
<stop offset="1" stop-color="#E03609"/>
</linearGradient>
<linearGradient id="paint1_linear_6048_19" x1="56.3333" y1="56.9846" x2="25.6667" y2="56.9846" gradientUnits="userSpaceOnUse">
<stop stop-color="#F0B71F"/>
<stop offset="1" stop-color="#E03609"/>
</linearGradient>
</defs>
</svg>
