<svg width="52" height="52" viewBox="0 0 52 52" fill="none" xmlns="http://www.w3.org/2000/svg">
<path opacity="0.1" fill-rule="evenodd" clip-rule="evenodd" d="M25.8117 50.5624C39.4813 50.5624 50.5627 39.481 50.5627 25.8115C50.5627 12.1419 39.4813 1.06055 25.8117 1.06055C12.1422 1.06055 1.06079 12.1419 1.06079 25.8115C1.06079 39.481 12.1422 50.5624 25.8117 50.5624Z" stroke="white" stroke-width="2.12151"/>
<path d="M33.902 21.2355C33.7872 21.1056 33.602 21.073 33.4501 21.1531C33.3556 21.2028 33.178 21.2681 32.9672 21.3326C33.2332 20.9688 33.4471 20.5615 33.5416 20.1954C33.5824 20.0376 33.5227 19.8712 33.3927 19.7772C33.2627 19.6839 33.0896 19.6839 32.9596 19.7772C32.7548 19.9241 31.7663 20.3656 31.1413 20.5087C29.7288 19.2362 28.0851 19.104 26.3764 20.1301C24.9873 20.9642 24.685 22.6603 24.744 23.6942C21.5646 23.3793 19.5883 21.6521 18.4759 20.2226C18.3981 20.1223 18.2726 20.0695 18.1547 20.0772C18.0308 20.0866 17.9189 20.1573 17.8554 20.2669C17.3294 21.1803 17.1836 22.19 17.4352 23.1873C17.5728 23.7315 17.8131 24.2111 18.092 24.5998C17.9582 24.5321 17.829 24.4474 17.7073 24.3463C17.5955 24.2515 17.439 24.2336 17.3068 24.2966C17.1753 24.3611 17.0914 24.4979 17.0914 24.648C17.0914 26.3604 18.1328 27.5031 19.1054 28.1001C18.9482 28.0806 18.7842 28.0449 18.6187 27.9928C18.4766 27.9485 18.3225 27.9928 18.2242 28.1079C18.126 28.2221 18.1026 28.3854 18.1638 28.5245C18.7102 29.7675 19.7455 30.6225 21.0265 30.9327C19.908 31.6082 18.4109 31.9393 17.04 31.7769C16.8624 31.7512 16.6931 31.867 16.6372 32.0427C16.5813 32.2184 16.6546 32.4112 16.811 32.5013C18.8908 33.7023 20.7711 34.1314 22.3959 34.1314C24.7606 34.1314 26.5857 33.2235 27.6967 32.464C30.6917 30.4196 32.5583 26.7491 32.2984 23.4649C32.7783 23.1003 33.4962 22.4271 33.9413 21.7034C34.0335 21.5573 34.0169 21.3645 33.902 21.2355Z" fill="white"/>
</svg>
